Coordinates
version=1
nRows=10
nColumns=40
inDegrees=yes

Units are S.I. units (second, meters, Newtons, ...)
If the header above contains a line with 'inDegrees', this indicates whether rotational values are in degrees (yes) or radians (no).

endheader
time	pelvis_tilt	pelvis_list	pelvis_rotation	pelvis_tx	pelvis_ty	pelvis_tz	hip_flexion_r	hip_adduction_r	hip_rotation_r	knee_angle_r	knee_angle_r_beta	ankle_angle_r	subtalar_angle_r	mtp_angle_r	hip_flexion_l	hip_adduction_l	hip_rotation_l	knee_angle_l	knee_angle_l_beta	ankle_angle_l	subtalar_angle_l	mtp_angle_l	lumbar_extension	lumbar_bending	lumbar_rotation	arm_flex_r	arm_add_r	arm_rot_r	elbow_flex_r	pro_sup_r	wrist_flex_r	wrist_dev_r	arm_flex_l	arm_add_l	arm_rot_l	elbow_flex_l	pro_sup_l	wrist_flex_l	wrist_dev_l
      2.62500000	    -18.45101691	      1.27795951	     -3.54853561	     -0.32785244	      0.97103199	     -1.07894229	     16.51656073	     -6.23701779	     -1.85077763	     63.93064939	      1.11580032	    -10.24999258	      0.00000000	      0.00000000	     41.76409547	      2.64251353	     -3.44186291	     42.48251488	      0.74145976	      6.09347117	      0.00000000	      0.00000000	      3.19450303	     -8.75412773	      3.53431666	     89.96077866	    -11.24739600	     18.40410355	     43.95102435	     63.38881396	      0.00000000	      0.00000000	     89.94545096	    -28.90416307	     13.31590645	     45.51606699	     74.72150024	      0.00000000	      0.00000000
      2.63000000	    -18.51973974	      1.33982580	     -3.55988543	     -0.32830618	      0.97024369	     -1.07898312	     16.62306196	     -6.28712219	     -1.83792593	     64.02450053	      1.11743834	    -10.16853843	      0.00000000	      0.00000000	     41.95508415	      2.66459540	     -3.55519280	     42.66308310	      0.74461127	      6.23068135	      0.00000000	      0.00000000	      3.21816929	     -8.81106614	      3.69337281	     89.96088184	    -11.36989850	     18.89706767	     44.12100946	     60.65028913	      0.00000000	      0.00000000	     89.94579500	    -28.78475897	     13.84185893	     45.59895149	     71.27841042	      0.00000000	      0.00000000
      2.63500000	    -18.57609601	      1.36320141	     -3.52446607	     -0.32879239	      0.96962818	     -1.07898054	     16.71081907	     -6.25776443	     -1.78775979	     64.11091041	      1.11894647	    -10.11057173	      0.00000000	      0.00000000	     42.12735466	      2.67984574	     -3.60419329	     42.81193715	      0.74720926	      6.28211654	      0.00000000	      0.00000000	      3.17664859	     -8.80618605	      3.57349654	     89.96113270	    -11.16872828	     18.15088632	     43.88628324	     68.39894304	      0.00000000	      0.00000000	     89.94566535	    -29.03401195	     12.79609444	     45.52712878	     83.16641008	      0.00000000	      0.00000000
      2.64000000	    -18.60962501	      1.32011661	     -3.47774463	     -0.32933755	      0.96897950	     -1.07895733	     16.74596002	     -6.17802250	     -1.81150039	     64.15941351	      1.11979301	    -10.02714878	      0.00000000	      0.00000000	     42.27738154	      2.65891243	     -3.54554580	     42.98001846	      0.75014283	      6.38585891	      0.00000000	      0.00000000	      3.11628586	     -8.76438153	      3.61649083	     89.96128967	    -11.17603416	     18.23492945	     44.02610635	     66.72501223	      0.00000000	      0.00000000	     89.94570842	    -28.88477838	     12.74600196	     45.49244630	     82.76247972	      0.00000000	      0.00000000
      2.64500000	    -18.62577377	      1.33235527	     -3.44807180	     -0.32982338	      0.96832918	     -1.07901063	     16.77597330	     -6.14311796	     -1.76323373	     64.24690629	      1.12132005	     -9.93908276	      0.00000000	      0.00000000	     42.41581917	      2.68007256	     -3.54170928	     43.17081618	      0.75347288	      6.41369640	      0.00000000	      0.00000000	      3.06378050	     -8.76390167	      3.67072391	     89.96144469	    -11.15082438	     18.24309623	     44.07399564	     66.09783870	      0.00000000	      0.00000000	     89.94591219	    -28.78501282	     12.69849601	     45.46087640	     83.14124954	      0.00000000	      0.00000000
      2.65000000	    -18.69492255	      1.38667354	     -3.40045953	     -0.33032848	      0.96761762	     -1.07906970	     16.87278711	     -6.16418669	     -1.74096159	     64.33385515	      1.12283759	     -9.90606032	      0.00000000	      0.00000000	     42.61258152	      2.75276847	     -3.54652161	     43.34194753	      0.75645969	      6.46434444	      0.00000000	      0.00000000	      3.07209834	     -8.80965137	      3.68831812	     89.96154892	    -11.07984724	     18.23839933	     44.04507061	     65.85084643	      0.00000000	      0.00000000	     89.94598470	    -28.72409324	     12.67399258	     45.46417739	     83.11989891	      0.00000000	      0.00000000
      2.65500000	    -18.71401104	      1.36113680	     -3.36323471	     -0.33082651	      0.96697662	     -1.07912876	     16.89819197	     -6.09792948	     -1.71439194	     64.38355174	      1.12370496	     -9.88487963	      0.00000000	      0.00000000	     42.74252928	      2.76091463	     -3.50284267	     43.49719768	      0.75916931	      6.55507923	      0.00000000	      0.00000000	      3.01093469	     -8.76855767	      3.72733480	     89.96170033	    -11.03045514	     18.14873004	     44.12677843	     65.35229604	      0.00000000	      0.00000000	     89.94613517	    -28.60798213	     12.60924232	     45.42798852	     83.05509166	      0.00000000	      0.00000000
      2.66000000	    -18.74391387	      1.34499441	     -3.30045242	     -0.33140712	      0.96630802	     -1.07921634	     16.97392276	     -6.06018745	     -1.73878342	     64.52095103	      1.12610303	     -9.91012533	      0.00000000	      0.00000000	     42.90004446	      2.78894143	     -3.42386306	     43.67497401	      0.76227210	      6.62116323	      0.00000000	      0.00000000	      2.95079585	     -8.75286322	      3.72210250	     89.96176811	    -11.01489338	     18.39406596	     44.27051869	     62.14050972	      0.00000000	      0.00000000	     89.94628663	    -28.46323661	     12.98617047	     45.48122440	     77.47477356	      0.00000000	      0.00000000
      2.66500000	    -18.83392220	      1.38161279	     -3.30390418	     -0.33192703	      0.96556939	     -1.07914478	     17.10147486	     -6.03494639	     -1.63744260	     64.62642209	      1.12794385	     -9.83197832	      0.00000000	      0.00000000	     43.12934335	      2.79142666	     -3.48604928	     43.88426270	      0.76592487	      6.69603247	      0.00000000	      0.00000000	      2.96280820	     -8.75748170	      3.72550588	     89.96198709	    -10.85347671	     18.15011156	     44.23626965	     64.38254059	      0.00000000	      0.00000000	     89.94627932	    -28.52739819	     12.50266026	     45.46533677	     82.93089785	      0.00000000	      0.00000000
      2.67000000	    -18.88903830	      1.37240992	     -3.33913064	     -0.33235175	      0.96484641	     -1.07904249	     17.18855015	     -5.93645857	     -1.51488067	     64.72680833	      1.12969592	     -9.76593071	      0.00000000	      0.00000000	     43.31085702	      2.76841151	     -3.46898508	     44.09360695	      0.76957862	      6.82079631	      0.00000000	      0.00000000	      2.96368178	     -8.72352393	      3.88875946	     89.96203246	    -10.88815826	     18.07371184	     44.28435917	     64.74682166	      0.00000000	      0.00000000	     89.94633822	    -28.40503304	     12.51193285	     45.42534672	     83.02000014	      0.00000000	      0.00000000
